<mxfile host="app.diagrams.net" modified="2024-05-18T15:18:28.893Z" agent="Mozilla/5.0 (Windows NT 10.0; Win64; x64) AppleWebKit/537.36 (KHTML, like Gecko) Chrome/125.0.0.0 Safari/537.36" etag="8TeyDcHeprKBNCX-gNxK" version="24.4.4" type="github">
  <diagram name="Seite-1" id="FDUMfH4OtruUSYn-kUDx">
    <mxGraphModel dx="1436" dy="727" grid="1" gridSize="10" guides="1" tooltips="1" connect="1" arrows="1" fold="1" page="1" pageScale="1" pageWidth="840" pageHeight="1000" math="0" shadow="0">
      <root>
        <mxCell id="0" />
        <mxCell id="1" parent="0" />
        <mxCell id="HdkrcDW3gAct7X6Tysw3-174" value="" style="group" vertex="1" connectable="0" parent="1">
          <mxGeometry x="294" y="330" width="296" height="160" as="geometry" />
        </mxCell>
        <mxCell id="HdkrcDW3gAct7X6Tysw3-175" value="&amp;lt;&amp;lt;loop&amp;gt;&amp;gt;" style="text;html=1;align=center;verticalAlign=middle;resizable=0;points=[];autosize=1;strokeColor=none;fillColor=none;fontFamily=Helvetica;fontSize=8;fontColor=default;labelBackgroundColor=default;" vertex="1" parent="HdkrcDW3gAct7X6Tysw3-174">
          <mxGeometry x="248.1296551724138" width="60" height="20" as="geometry" />
        </mxCell>
        <mxCell id="HdkrcDW3gAct7X6Tysw3-176" value="" style="fontStyle=0;dashed=1;html=1;whiteSpace=wrap;fontFamily=Helvetica;fontSize=11;fontColor=default;labelBackgroundColor=none;textOpacity=0;fillColor=none;" vertex="1" parent="HdkrcDW3gAct7X6Tysw3-174">
          <mxGeometry width="296" height="160" as="geometry" />
        </mxCell>
        <mxCell id="HdkrcDW3gAct7X6Tysw3-172" value="" style="fontStyle=0;dashed=1;html=1;whiteSpace=wrap;fontFamily=Helvetica;fontSize=11;fontColor=default;labelBackgroundColor=none;textOpacity=0;fillColor=none;movable=1;resizable=1;rotatable=1;deletable=1;editable=1;locked=0;connectable=1;" vertex="1" parent="1">
          <mxGeometry x="200" y="200" width="410" height="310" as="geometry" />
        </mxCell>
        <mxCell id="HdkrcDW3gAct7X6Tysw3-140" style="edgeStyle=orthogonalEdgeStyle;rounded=0;orthogonalLoop=1;jettySize=auto;html=1;strokeColor=default;align=center;verticalAlign=middle;fontFamily=Helvetica;fontSize=11;fontColor=default;labelBackgroundColor=default;endArrow=open;endFill=0;" edge="1" parent="1" source="HdkrcDW3gAct7X6Tysw3-1" target="HdkrcDW3gAct7X6Tysw3-75">
          <mxGeometry relative="1" as="geometry" />
        </mxCell>
        <mxCell id="HdkrcDW3gAct7X6Tysw3-1" value="" style="ellipse;html=1;shape=startState;fillColor=#000000;strokeColor=#000000;" vertex="1" parent="1">
          <mxGeometry x="356.5" y="150" width="30" height="30" as="geometry" />
        </mxCell>
        <mxCell id="HdkrcDW3gAct7X6Tysw3-2" value="Tags zuordnen" style="shape=umlFrame;whiteSpace=wrap;html=1;pointerEvents=0;width=100;height=20;align=left;" vertex="1" parent="1">
          <mxGeometry x="150" y="130" width="520" height="470" as="geometry" />
        </mxCell>
        <mxCell id="HdkrcDW3gAct7X6Tysw3-150" style="edgeStyle=orthogonalEdgeStyle;rounded=0;orthogonalLoop=1;jettySize=auto;html=1;strokeColor=default;align=center;verticalAlign=middle;fontFamily=Helvetica;fontSize=11;fontColor=default;labelBackgroundColor=default;endArrow=open;endFill=0;" edge="1" parent="1" source="HdkrcDW3gAct7X6Tysw3-31" target="HdkrcDW3gAct7X6Tysw3-149">
          <mxGeometry relative="1" as="geometry" />
        </mxCell>
        <mxCell id="HdkrcDW3gAct7X6Tysw3-31" value="Schicht auswÃ¤hlen" style="rounded=1;whiteSpace=wrap;html=1;fontFamily=Helvetica;fontSize=11;fontColor=default;labelBackgroundColor=default;" vertex="1" parent="1">
          <mxGeometry x="390" y="265" width="99" height="40" as="geometry" />
        </mxCell>
        <mxCell id="HdkrcDW3gAct7X6Tysw3-32" value="Tag entfernen" style="rounded=1;whiteSpace=wrap;html=1;fontFamily=Helvetica;fontSize=11;fontColor=default;labelBackgroundColor=default;" vertex="1" parent="1">
          <mxGeometry x="327" y="392" width="98" height="40" as="geometry" />
        </mxCell>
        <mxCell id="HdkrcDW3gAct7X6Tysw3-38" value="Tag zuordnen" style="rounded=1;whiteSpace=wrap;html=1;fontFamily=Helvetica;fontSize=11;fontColor=default;labelBackgroundColor=default;" vertex="1" parent="1">
          <mxGeometry x="454" y="392" width="98" height="40" as="geometry" />
        </mxCell>
        <mxCell id="HdkrcDW3gAct7X6Tysw3-49" value="" style="ellipse;html=1;shape=endState;fillColor=#000000;strokeColor=#000000;fontFamily=Helvetica;fontSize=11;fontColor=default;labelBackgroundColor=default;" vertex="1" parent="1">
          <mxGeometry x="425" y="540" width="30" height="30" as="geometry" />
        </mxCell>
        <mxCell id="HdkrcDW3gAct7X6Tysw3-146" style="edgeStyle=orthogonalEdgeStyle;rounded=0;orthogonalLoop=1;jettySize=auto;html=1;exitX=0.75;exitY=0.5;exitDx=0;exitDy=0;exitPerimeter=0;entryX=0.5;entryY=0;entryDx=0;entryDy=0;strokeColor=default;align=center;verticalAlign=middle;fontFamily=Helvetica;fontSize=11;fontColor=default;labelBackgroundColor=default;endArrow=open;endFill=0;" edge="1" parent="1" source="HdkrcDW3gAct7X6Tysw3-75" target="HdkrcDW3gAct7X6Tysw3-31">
          <mxGeometry relative="1" as="geometry" />
        </mxCell>
        <mxCell id="HdkrcDW3gAct7X6Tysw3-75" value="" style="shape=line;html=1;strokeWidth=6;strokeColor=#000000;fillColor=#000000;fontFamily=Helvetica;fontSize=11;fontColor=default;labelBackgroundColor=default;" vertex="1" parent="1">
          <mxGeometry x="218.05" y="220" width="306.9" height="13" as="geometry" />
        </mxCell>
        <mxCell id="HdkrcDW3gAct7X6Tysw3-88" value="" style="group" vertex="1" connectable="0" parent="1">
          <mxGeometry x="215.44" y="265" width="98" height="40" as="geometry" />
        </mxCell>
        <mxCell id="HdkrcDW3gAct7X6Tysw3-81" value="Tags&amp;nbsp;&lt;div&gt;bearbeiten&lt;/div&gt;" style="rounded=1;whiteSpace=wrap;html=1;fontFamily=Helvetica;fontSize=11;fontColor=default;labelBackgroundColor=default;" vertex="1" parent="HdkrcDW3gAct7X6Tysw3-88">
          <mxGeometry width="98" height="40" as="geometry" />
        </mxCell>
        <mxCell id="HdkrcDW3gAct7X6Tysw3-82" value="" style="strokeWidth=1;html=1;shape=mxgraph.flowchart.annotation_2;align=left;labelPosition=right;pointerEvents=1;rotation=90;fontFamily=Helvetica;fontSize=11;fontColor=default;labelBackgroundColor=default;" vertex="1" parent="HdkrcDW3gAct7X6Tysw3-88">
          <mxGeometry x="79" y="5" width="9" height="11" as="geometry" />
        </mxCell>
        <mxCell id="HdkrcDW3gAct7X6Tysw3-83" value="" style="endArrow=none;html=1;rounded=0;entryX=0.519;entryY=0.49;entryDx=0;entryDy=0;entryPerimeter=0;exitX=1;exitY=0.5;exitDx=0;exitDy=0;exitPerimeter=0;strokeWidth=1;strokeColor=default;align=center;verticalAlign=middle;fontFamily=Helvetica;fontSize=11;fontColor=default;labelBackgroundColor=default;edgeStyle=orthogonalEdgeStyle;" edge="1" source="HdkrcDW3gAct7X6Tysw3-82" target="HdkrcDW3gAct7X6Tysw3-82" parent="HdkrcDW3gAct7X6Tysw3-88">
          <mxGeometry width="50" height="50" relative="1" as="geometry">
            <mxPoint x="-533" y="117.5" as="sourcePoint" />
            <mxPoint x="-470" y="147.5" as="targetPoint" />
          </mxGeometry>
        </mxCell>
        <mxCell id="HdkrcDW3gAct7X6Tysw3-124" style="edgeStyle=orthogonalEdgeStyle;rounded=0;orthogonalLoop=1;jettySize=auto;html=1;strokeColor=default;align=center;verticalAlign=middle;fontFamily=Helvetica;fontSize=11;fontColor=default;labelBackgroundColor=default;endArrow=open;endFill=0;exitX=0.15;exitY=0.769;exitDx=0;exitDy=0;exitPerimeter=0;" edge="1" parent="1" source="HdkrcDW3gAct7X6Tysw3-75" target="HdkrcDW3gAct7X6Tysw3-81">
          <mxGeometry relative="1" as="geometry" />
        </mxCell>
        <mxCell id="HdkrcDW3gAct7X6Tysw3-126" value="" style="shape=sumEllipse;perimeter=ellipsePerimeter;html=1;backgroundOutline=1;fontFamily=Helvetica;fontSize=11;fontColor=default;labelBackgroundColor=default;" vertex="1" parent="1">
          <mxGeometry x="249.44" y="340" width="30" height="30" as="geometry" />
        </mxCell>
        <mxCell id="HdkrcDW3gAct7X6Tysw3-127" style="edgeStyle=orthogonalEdgeStyle;rounded=0;orthogonalLoop=1;jettySize=auto;html=1;entryX=0.5;entryY=0;entryDx=0;entryDy=0;strokeColor=default;align=center;verticalAlign=middle;fontFamily=Helvetica;fontSize=11;fontColor=default;labelBackgroundColor=default;endArrow=open;endFill=0;" edge="1" parent="1" source="HdkrcDW3gAct7X6Tysw3-81" target="HdkrcDW3gAct7X6Tysw3-126">
          <mxGeometry relative="1" as="geometry" />
        </mxCell>
        <mxCell id="HdkrcDW3gAct7X6Tysw3-156" style="edgeStyle=orthogonalEdgeStyle;rounded=0;orthogonalLoop=1;jettySize=auto;html=1;exitX=0.75;exitY=0.5;exitDx=0;exitDy=0;exitPerimeter=0;entryX=0.5;entryY=0;entryDx=0;entryDy=0;strokeColor=default;align=center;verticalAlign=middle;fontFamily=Helvetica;fontSize=11;fontColor=default;labelBackgroundColor=default;endArrow=open;endFill=0;" edge="1" parent="1" source="HdkrcDW3gAct7X6Tysw3-149" target="HdkrcDW3gAct7X6Tysw3-38">
          <mxGeometry relative="1" as="geometry" />
        </mxCell>
        <mxCell id="HdkrcDW3gAct7X6Tysw3-161" style="edgeStyle=orthogonalEdgeStyle;rounded=0;orthogonalLoop=1;jettySize=auto;html=1;exitX=0.25;exitY=0.5;exitDx=0;exitDy=0;exitPerimeter=0;entryX=0.5;entryY=0;entryDx=0;entryDy=0;strokeColor=default;align=center;verticalAlign=middle;fontFamily=Helvetica;fontSize=11;fontColor=default;labelBackgroundColor=default;endArrow=open;endFill=0;" edge="1" parent="1" source="HdkrcDW3gAct7X6Tysw3-149" target="HdkrcDW3gAct7X6Tysw3-32">
          <mxGeometry relative="1" as="geometry" />
        </mxCell>
        <mxCell id="HdkrcDW3gAct7X6Tysw3-149" value="" style="shape=line;html=1;strokeWidth=6;strokeColor=#000000;fillColor=#000000;fontFamily=Helvetica;fontSize=11;fontColor=default;labelBackgroundColor=default;" vertex="1" parent="1">
          <mxGeometry x="312.44" y="351" width="254.11" height="10" as="geometry" />
        </mxCell>
        <mxCell id="HdkrcDW3gAct7X6Tysw3-165" style="edgeStyle=orthogonalEdgeStyle;rounded=0;orthogonalLoop=1;jettySize=auto;html=1;entryX=0.5;entryY=0;entryDx=0;entryDy=0;strokeColor=default;align=center;verticalAlign=middle;fontFamily=Helvetica;fontSize=11;fontColor=default;labelBackgroundColor=default;endArrow=open;endFill=0;" edge="1" parent="1" source="HdkrcDW3gAct7X6Tysw3-157" target="HdkrcDW3gAct7X6Tysw3-49">
          <mxGeometry relative="1" as="geometry">
            <mxPoint x="439.5" y="490" as="targetPoint" />
          </mxGeometry>
        </mxCell>
        <mxCell id="HdkrcDW3gAct7X6Tysw3-157" value="" style="shape=line;html=1;strokeWidth=6;strokeColor=#000000;fillColor=#000000;fontFamily=Helvetica;fontSize=11;fontColor=default;labelBackgroundColor=default;" vertex="1" parent="1">
          <mxGeometry x="312.44" y="460" width="254.11" height="10" as="geometry" />
        </mxCell>
        <mxCell id="HdkrcDW3gAct7X6Tysw3-158" style="edgeStyle=orthogonalEdgeStyle;rounded=0;orthogonalLoop=1;jettySize=auto;html=1;entryX=0.25;entryY=0.5;entryDx=0;entryDy=0;entryPerimeter=0;strokeColor=default;align=center;verticalAlign=middle;fontFamily=Helvetica;fontSize=11;fontColor=default;labelBackgroundColor=default;endArrow=open;endFill=0;" edge="1" parent="1" source="HdkrcDW3gAct7X6Tysw3-32" target="HdkrcDW3gAct7X6Tysw3-157">
          <mxGeometry relative="1" as="geometry" />
        </mxCell>
        <mxCell id="HdkrcDW3gAct7X6Tysw3-159" style="edgeStyle=orthogonalEdgeStyle;rounded=0;orthogonalLoop=1;jettySize=auto;html=1;entryX=0.75;entryY=0.5;entryDx=0;entryDy=0;entryPerimeter=0;strokeColor=default;align=center;verticalAlign=middle;fontFamily=Helvetica;fontSize=11;fontColor=default;labelBackgroundColor=default;endArrow=open;endFill=0;" edge="1" parent="1" source="HdkrcDW3gAct7X6Tysw3-38" target="HdkrcDW3gAct7X6Tysw3-157">
          <mxGeometry relative="1" as="geometry" />
        </mxCell>
        <mxCell id="HdkrcDW3gAct7X6Tysw3-137" value="&amp;lt;&amp;lt;loop&amp;gt;&amp;gt;" style="text;html=1;align=center;verticalAlign=middle;resizable=0;points=[];autosize=1;strokeColor=none;fillColor=none;fontFamily=Helvetica;fontSize=8;fontColor=default;labelBackgroundColor=default;" vertex="1" parent="1">
          <mxGeometry x="561" y="200" width="60" height="20" as="geometry" />
        </mxCell>
      </root>
    </mxGraphModel>
  </diagram>
</mxfile>
